<?xml version="1.0" encoding="utf-8"?>
<!-- Generator: Adobe Illustrator 23.0.3, SVG Export Plug-In . SVG Version: 6.00 Build 0)  -->
<svg version="1.1" id="Layer_1" xmlns="http://www.w3.org/2000/svg" xmlns:xlink="http://www.w3.org/1999/xlink" x="0px" y="0px"
	 viewBox="0 0 703.45 192.44" style="enable-background:new 0 0 703.45 192.44;" xml:space="preserve">
<style type="text/css">
	.st0{fill:#E50695;}
	.st1{fill:#211261;}
</style>
<g>
	<path class="st0" d="M246.2,130.74c-2.09-1.28-3.57-2.61-4.44-4.01c-0.87-1.39-1.31-2.96-1.31-4.71c0-1.86,0.52-3.43,1.57-4.71
		c1.05-1.28,2.38-1.92,4.01-1.92c1.51,0,3.89,0.93,7.15,2.79c3.49,1.86,6.88,3.37,10.2,4.53c3.31,1.16,7.46,1.74,12.46,1.74
		c5.58,0,9.93-0.99,13.07-2.96s4.71-4.76,4.71-8.37c0-2.32-0.61-4.18-1.83-5.58c-1.22-1.39-3.34-2.64-6.36-3.75
		c-3.02-1.1-7.49-2.29-13.42-3.57c-10.23-2.21-17.58-5.2-22.05-8.98c-4.47-3.78-6.71-8.92-6.71-15.42c0-4.99,1.45-9.5,4.36-13.51
		c2.9-4.01,6.91-7.12,12.02-9.32c5.11-2.21,10.92-3.31,17.43-3.31c4.65,0,9.18,0.61,13.59,1.83c4.41,1.22,8.31,2.99,11.68,5.32
		c3.83,2.56,5.75,5.52,5.75,8.89c0,1.86-0.55,3.43-1.66,4.7c-1.11,1.28-2.41,1.92-3.92,1.92c-1.05,0-2.09-0.23-3.14-0.7
		c-1.04-0.46-2.44-1.22-4.18-2.26c-3.14-1.86-6.07-3.31-8.8-4.36c-2.73-1.05-6.13-1.57-10.2-1.57c-4.88,0-8.8,1.05-11.76,3.14
		c-2.96,2.09-4.44,4.94-4.44,8.54c0,3.25,1.37,5.78,4.1,7.58c2.73,1.8,7.87,3.52,15.42,5.14c7.78,1.63,13.88,3.49,18.3,5.58
		c4.41,2.09,7.58,4.68,9.5,7.76c1.92,3.08,2.88,7,2.88,11.76c0,7.55-3.17,13.62-9.5,18.21c-6.33,4.59-14.79,6.88-25.36,6.88
		C263.45,138.06,253.75,135.62,246.2,130.74z"/>
	<path class="st0" d="M372.64,126.3c1.1,1.11,1.66,2.65,1.66,4.62c0,2.33-0.9,4.1-2.7,5.32c-1.8,1.22-4.44,1.71-7.93,1.48
		l-4.71-0.35c-9.41-0.7-16.44-3.57-21.09-8.63c-4.65-5.05-6.97-12.52-6.97-22.39V65.39h-10.46c-5.11,0-7.67-2.26-7.67-6.8
		c0-2.09,0.67-3.75,2-4.97c1.33-1.22,3.22-1.83,5.66-1.83h10.46V33.84c0-2.67,0.78-4.76,2.35-6.28c1.57-1.51,3.69-2.26,6.36-2.26
		c2.67,0,4.82,0.76,6.45,2.26c1.63,1.51,2.44,3.6,2.44,6.28v17.95h17.25c2.44,0,4.33,0.61,5.66,1.83c1.33,1.22,2,2.87,2,4.97
		c0,2.21-0.67,3.89-2,5.05c-1.34,1.16-3.22,1.74-5.66,1.74H348.5v42.18c0,5.46,1.13,9.47,3.4,12.03c2.26,2.56,5.72,4.01,10.37,4.36
		l4.88,0.35C369.7,124.53,371.53,125.19,372.64,126.3z"/>
	<path class="st0" d="M437.38,57.19c0,2.56-0.64,4.47-1.92,5.75c-1.28,1.28-3.49,2.04-6.62,2.27l-5.23,0.52
		c-7.32,0.7-12.75,3.25-16.3,7.67c-3.54,4.42-5.32,9.76-5.32,16.03v39.91c0,2.79-0.81,4.88-2.44,6.28
		c-1.63,1.39-3.72,2.09-6.27,2.09c-2.56,0-4.68-0.7-6.36-2.09c-1.69-1.39-2.53-3.49-2.53-6.28V58.41c0-2.67,0.84-4.73,2.53-6.19
		c1.68-1.45,3.8-2.18,6.36-2.18c2.32,0,4.27,0.73,5.84,2.18c1.57,1.45,2.35,3.46,2.35,6.01v8.37c2.32-5.11,5.69-9,10.11-11.67
		c4.41-2.67,9.41-4.24,14.99-4.71l2.44-0.17C434.59,49.7,437.38,52.08,437.38,57.19z"/>
	<path class="st0" d="M509.71,117.32c1.04,1.28,1.57,2.91,1.57,4.88c0,3.37-2.09,6.22-6.27,8.54c-4.07,2.33-8.51,4.13-13.33,5.4
		c-4.82,1.28-9.44,1.92-13.86,1.92c-13.48,0-24.11-3.92-31.89-11.76c-7.79-7.84-11.68-18.56-11.68-32.16
		c0-8.71,1.71-16.44,5.14-23.18c3.43-6.74,8.25-11.97,14.47-15.69c6.21-3.72,13.27-5.58,21.18-5.58c11.39,0,20.39,3.66,27.01,10.98
		c6.62,7.32,9.93,17.19,9.93,29.63c0,4.65-2.09,6.97-6.27,6.97h-53.85c1.16,18.01,9.82,27.01,25.97,27.01
		c4.3,0,8.02-0.58,11.15-1.74c3.14-1.16,6.45-2.67,9.93-4.53c0.35-0.23,1.31-0.72,2.88-1.48c1.57-0.75,2.88-1.13,3.92-1.13
		C507.33,115.4,508.66,116.04,509.71,117.32z M459.17,69.05c-4.07,4.3-6.51,10.34-7.32,18.12h44.96c-0.35-7.9-2.35-13.97-6.01-18.21
		c-3.66-4.24-8.8-6.36-15.42-6.36C468.64,62.6,463.23,64.75,459.17,69.05z"/>
	<path class="st0" d="M595.11,117.32c1.04,1.28,1.57,2.91,1.57,4.88c0,3.37-2.09,6.22-6.27,8.54c-4.07,2.33-8.51,4.13-13.33,5.4
		c-4.82,1.28-9.44,1.92-13.86,1.92c-13.48,0-24.11-3.92-31.89-11.76c-7.79-7.84-11.68-18.56-11.68-32.16
		c0-8.71,1.71-16.44,5.14-23.18c3.43-6.74,8.25-11.97,14.47-15.69c6.21-3.72,13.27-5.58,21.18-5.58c11.39,0,20.39,3.66,27.01,10.98
		c6.62,7.32,9.93,17.19,9.93,29.63c0,4.65-2.09,6.97-6.27,6.97h-53.85c1.16,18.01,9.82,27.01,25.97,27.01
		c4.3,0,8.02-0.58,11.15-1.74c3.14-1.16,6.45-2.67,9.93-4.53c0.35-0.23,1.31-0.72,2.88-1.48c1.57-0.75,2.88-1.13,3.92-1.13
		C592.72,115.4,594.06,116.04,595.11,117.32z M544.56,69.05c-4.07,4.3-6.51,10.34-7.32,18.12h44.96c-0.35-7.9-2.35-13.97-6.01-18.21
		c-3.66-4.24-8.8-6.36-15.42-6.36C554.03,62.6,548.63,64.75,544.56,69.05z"/>
	<path class="st0" d="M656.89,126.3c1.1,1.11,1.66,2.65,1.66,4.62c0,2.33-0.9,4.1-2.7,5.32c-1.8,1.22-4.44,1.71-7.93,1.48
		l-4.71-0.35c-9.41-0.7-16.44-3.57-21.09-8.63c-4.65-5.05-6.97-12.52-6.97-22.39V65.39h-10.46c-5.11,0-7.67-2.26-7.67-6.8
		c0-2.09,0.67-3.75,2-4.97c1.33-1.22,3.22-1.83,5.66-1.83h10.46V33.84c0-2.67,0.78-4.76,2.35-6.28c1.57-1.51,3.69-2.26,6.36-2.26
		c2.67,0,4.82,0.76,6.45,2.26c1.63,1.51,2.44,3.6,2.44,6.28v17.95H650c2.44,0,4.33,0.61,5.66,1.83c1.33,1.22,2,2.87,2,4.97
		c0,2.21-0.67,3.89-2,5.05c-1.34,1.16-3.22,1.74-5.66,1.74h-17.25v42.18c0,5.46,1.13,9.47,3.4,12.03c2.26,2.56,5.72,4.01,10.37,4.36
		l4.88,0.35C653.95,124.53,655.78,125.19,656.89,126.3z"/>
	<path class="st1" d="M230.43,70.61c-3.2-6.85-7.67-12.17-13.42-15.95C211.26,50.89,204.72,49,197.4,49
		c-5.69,0-10.89,1.16-15.6,3.48c-4.71,2.33-8.28,5.52-10.72,9.59c-0.35-3.83-1.89-6.91-4.62-9.24c-2.73-2.32-6.3-3.49-10.72-3.49
		c-4.65,0-8.34,1.31-11.07,3.92l-0.36,0.35c-3.2,3.08-4.05,7.87-2.13,11.87l8.79,18.26c1.11,2.31-0.57,4.99-3.14,4.99h-5.14
		c-1.17,0-2.12,0.95-2.12,2.12v64.27c0,4.07,1.45,7.41,4.36,10.02c2.9,2.61,6.74,3.92,11.5,3.92c4.53,0,8.19-1.22,10.98-3.66
		s4.18-5.69,4.18-9.76v-29.63c2.55,3.72,6.13,6.68,10.72,8.89c4.59,2.21,9.61,3.31,15.08,3.31c7.43,0,14-1.8,19.69-5.4
		c5.69-3.6,10.13-8.74,13.33-15.42c3.19-6.68,4.79-14.44,4.79-23.27C235.22,85.31,233.62,77.47,230.43,70.61z M200.28,109.65
		c-2.85,3.6-6.94,5.4-12.29,5.4c-5.46,0-9.65-1.83-12.55-5.49c-2.91-3.66-4.36-8.91-4.36-15.77c0-6.97,1.45-12.31,4.36-16.03
		c2.9-3.72,7.03-5.58,12.37-5.58c5.34,0,9.47,1.89,12.37,5.66c2.9,3.78,4.36,9.21,4.36,16.29
		C204.55,100.88,203.12,106.05,200.28,109.65z"/>
	<path class="st1" d="M121.66,83.76l8.8-18.27c1.96-4.07,1.03-8.95-2.28-12.02l-0.31-0.29c-2.79-2.55-6.57-3.83-11.33-3.83
		c-4.77,0-8.54,1.28-11.33,3.83c-2.79,2.56-4.18,6.04-4.18,10.46v34.51c0,4.88-1.34,8.83-4.01,11.85c-2.67,3.02-6.1,4.53-10.28,4.53
		c-7.2,0-10.81-4.18-10.81-12.55V63.64c0-4.41-1.39-7.9-4.18-10.46c-2.79-2.55-6.57-3.83-11.33-3.83c-4.77,0-8.54,1.28-11.33,3.83
		c-2.79,2.56-4.18,6.04-4.18,10.46v37.64c0,12.43,2.67,21.7,8.02,27.8c5.34,6.1,13.53,9.15,24.57,9.15c5.34,0,10.08-1.11,14.2-3.31
		c4.12-2.21,7.52-5.4,10.2-9.59c0.11,3.83,1.51,6.88,4.18,9.15c2.67,2.27,6.1,3.4,10.28,3.4c4.64,0,8.42-1.31,11.33-3.92
		c2.9-2.61,4.36-5.95,4.36-10.02V90.87c0-1.17-0.95-2.12-2.12-2.12h-5.13C122.23,88.75,120.55,86.07,121.66,83.76z"/>
</g>
</svg>
